<svg xmlns="http://www.w3.org/2000/svg" viewBox="0 0 24 30" x="0px" y="0px"><title>location</title><g data-name="Layer 2"><path d="M21.263,2.575a.5.5,0,0,0-.487-.022L15,5.441,9.224,2.553l-.014,0a.475.475,0,0,0-.42,0l-.014,0-6,3A.5.5,0,0,0,2.5,6V21a.5.5,0,0,0,.724.447L9,18.559l5.776,2.888.014,0a.475.475,0,0,0,.42,0l.014,0,6-3A.5.5,0,0,0,21.5,18V3A.5.5,0,0,0,21.263,2.575ZM9.5,3.809l5,2.5V20.191l-5-2.5Zm-6,2.5,5-2.5V17.691l-5,2.5Zm17,11.382-5,2.5V6.309l5-2.5Z"/></g><text x="0" y="39" fill="#000000" font-size="5px" font-weight="bold" font-family="'Helvetica Neue', Helvetica, Arial-Unicode, Arial, Sans-serif">Created by Ilham Fitrotul Hayat</text><text x="0" y="44" fill="#000000" font-size="5px" font-weight="bold" font-family="'Helvetica Neue', Helvetica, Arial-Unicode, Arial, Sans-serif">from the Noun Project</text></svg>